<?xml version="1.0" encoding="utf-8"?>
<!-- Generator: Adobe Illustrator 24.0.2, SVG Export Plug-In . SVG Version: 6.00 Build 0)  -->
<svg version="1.1" id="Capa_1" xmlns="http://www.w3.org/2000/svg" xmlns:xlink="http://www.w3.org/1999/xlink" x="0px" y="0px"
	 viewBox="0 0 42 42" style="enable-background:new 0 0 42 42;" xml:space="preserve">
<style type="text/css">
	.st0{fill:#F05454;}
</style>
<path class="st0" d="M21,1.3L4,11.2v19.7l17,9.8l17-9.8V11.2L21,1.3z M36.5,30l-15.5,9L5.5,30V12.1l15.5-9l15.5,9V30z"/>
<g>
	<path class="st0" d="M17.5,30.3c-1.1-0.5-1.9-1.1-2.5-2c-0.6-0.8-0.9-1.8-0.9-3h3.4c0.1,0.8,0.4,1.5,1,2.1s1.4,0.8,2.5,0.8
		c1.1,0,2-0.3,2.6-0.8c0.6-0.5,0.9-1.2,0.9-2.1c0-0.7-0.2-1.2-0.6-1.6c-0.4-0.4-0.9-0.7-1.4-1s-1.4-0.5-2.4-0.7
		c-1.3-0.3-2.3-0.7-3.1-1c-0.8-0.4-1.5-0.9-2-1.6c-0.6-0.7-0.8-1.7-0.8-2.9c0-1.1,0.3-2.1,0.8-2.9s1.4-1.5,2.4-1.9
		c1-0.4,2.2-0.7,3.5-0.7c1.9,0,3.5,0.5,4.7,1.4s1.9,2.3,2,3.9h-3.5c-0.1-0.7-0.4-1.3-1-1.8c-0.6-0.5-1.4-0.8-2.5-0.8
		c-0.9,0-1.7,0.2-2.3,0.7c-0.6,0.5-0.9,1.1-0.9,2c0,0.6,0.2,1.1,0.5,1.5c0.4,0.4,0.8,0.7,1.4,0.9c0.6,0.2,1.3,0.5,2.3,0.7
		c1.3,0.4,2.4,0.7,3.2,1.1c0.8,0.4,1.5,0.9,2.1,1.6s0.9,1.7,0.9,3c0,1-0.3,1.9-0.8,2.8c-0.5,0.9-1.3,1.6-2.3,2.1S22.5,31,21.1,31
		C19.8,31,18.6,30.8,17.5,30.3z"/>
</g>
</svg>
